<?xml version="1.0" encoding="utf-8"?>
<!-- Generator: Adobe Illustrator 27.5.0, SVG Export Plug-In . SVG Version: 6.00 Build 0)  -->
<svg version="1.1" xmlns="http://www.w3.org/2000/svg" xmlns:xlink="http://www.w3.org/1999/xlink" x="0px" y="0px"
	 viewBox="0 0 750 500" style="enable-background:new 0 0 750 500;" xml:space="preserve">
<g id="background">
	<rect style="fill:#FFFCF5;" width="750" height="500"/>
</g>
<g id="objects">
	<g>
		<path style="fill:#FFF2DB;" d="M340.17,40.861c-108.881-6.832-147.502,46.87-202.84,102.416
			c-55.337,55.542-80.917,114.175-48.76,197.636c32.158,83.461,108.082,104.684,227.248,104.684
			c119.168,0,241.888,11.627,304.039-33.77c62.149-45.395,83.322-149.136-6.727-203.417
			C560.094,176.439,490.685,50.306,340.17,40.861z"/>
		<g>
			<defs>
				<path id="SVGID_1_" d="M340.17,40.861c-108.881-6.832-147.502,46.87-202.84,102.416
					c-55.337,55.542-80.917,114.175-48.76,197.636c32.158,83.461,108.082,104.684,227.248,104.684
					c119.168,0,241.888,11.627,304.039-33.77c62.149-45.395,83.322-149.136-6.727-203.417
					C560.094,176.439,490.685,50.306,340.17,40.861z"/>
			</defs>
			<clipPath id="SVGID_00000092415573344026406560000006773515850043038618_">
				<use xlink:href="#SVGID_1_"  style="overflow:visible;"/>
			</clipPath>
			<g style="clip-path:url(#SVGID_00000092415573344026406560000006773515850043038618_);">
				<g>
					<path style="fill:#FFBC45;" d="M165.691,428.06c-1.165-14.461-5.856-28.194-10.534-41.826
						c-4.623-13.473-9.823-27.686-10.055-42.095c-0.101-6.22,2.737-18.868,11.605-16.491c2.997,0.804,4.883,4.059,6.237,6.592
						c1.783,3.338,3.181,6.891,4.413,10.463c4.649,13.483,5.485,27.916,5.45,42.066c-0.027,10.642-0.768,21.334,0.103,31.958
						c0.052,0.634,1.002,0.653,1,0c-0.04-14.91,0.793-29.801,3.424-44.495c1.255-7.011,2.955-13.935,4.966-20.765
						c0.72-2.446,3.003-6.192,5.513-6.843c3.73-0.967,8.344,0.073,9.778,4.1c5.358,15.039,0.817,31.229-4.175,45.687
						c-2.107,6.103-4.205,12.201-6.914,18.061c-2.21,4.782-4.381,9.584-6.505,14.405c-0.623,1.413-1.238,2.828-1.831,4.254
						c-0.248,0.596,0.72,0.852,0.964,0.266c3.793-9.122,8.512-17.885,11.845-27.18c4.994-13.927,10.572-28.23,9.943-43.283
						c-0.139-3.327-0.705-6.627-1.55-9.843c-0.758-2.89-1.653-5.084-4.252-6.707c-1.829-1.143-4.168-1.229-6.239-0.974
						c-2.638,0.325-3.543,1.029-4.959,3.178c-0.541,0.821-1.808,2.044-2.074,2.924c-0.509,1.678-1.001,3.359-1.475,5.047
						c-1.002,3.57-1.882,7.175-2.681,10.796c-1.461,6.632-2.516,13.349-3.284,20.095c-1.182,10.378-1.523,20.838-1.495,31.277
						c0.333,0,0.667,0,1,0c-1.002-12.225,0.02-24.544-0.124-36.791c-0.163-13.853-1.694-27.77-6.659-40.79
						c-1.82-4.772-3.978-10.537-8.318-13.588c-4.487-3.154-9.482,0.313-11.932,4.227c-3.259,5.209-3.054,12.143-2.396,17.991
						c0.761,6.756,2.387,13.423,4.265,19.944c5.581,19.39,14.307,37.999,15.946,58.341
						C164.742,428.698,165.743,428.703,165.691,428.06L165.691,428.06z"/>
				</g>
				<g>
					<path style="fill:#FFBC45;" d="M165.601,427.898c-0.254-2.773-0.557-5.533-1.145-8.259c-0.119-0.55-1.016-0.431-0.982,0.133
						c0.167,2.779,0.564,5.529,0.999,8.277c0.1,0.636,1.063,0.365,0.964-0.266c-0.419-2.66-0.8-5.321-0.962-8.012
						c-0.327,0.044-0.655,0.089-0.982,0.133c0.569,2.638,0.863,5.309,1.109,7.993C164.659,428.535,165.66,428.541,165.601,427.898
						L165.601,427.898z"/>
				</g>
				<g>
					<path style="fill:#FFBC45;" d="M151.938,428.281c-4.227-11.178-13.092-19.382-20.966-28.02
						c-4.219-4.628-8.152-9.526-10.986-15.139c-2.687-5.319-6.335-13.308-2.676-18.938c3.162-4.866,10.078-0.923,13.521,1.395
						c4.392,2.957,7.857,6.923,11.183,10.994c9.217,11.284,16.153,24.511,20.139,38.523c0.98,3.446,1.723,6.958,2.295,10.494
						c0.102,0.636,1.066,0.365,0.964-0.266c-2.208-13.639-7.43-26.581-14.707-38.291c-5.652-9.095-12.709-18.87-22.317-24.116
						c-3.116-1.701-7.176-3.007-10.383-0.851c-4.069,2.737-3.425,8.712-2.375,12.762c2.996,11.56,11.208,20.534,19.152,29.002
						c6.393,6.813,12.836,13.842,16.192,22.716C151.199,429.145,152.166,428.886,151.938,428.281L151.938,428.281z"/>
				</g>
				<g>
					<path style="fill:#FFBC45;" d="M191.025,352.971c-6.624,10.32-5.369,23.488-7.394,35.112
						c-1.164,6.679-3.551,13.034-4.77,19.692c-1.288,7.035-2.701,14.029-4.376,20.983c-0.151,0.627,0.813,0.893,0.964,0.266
						c1.603-6.651,3.016-13.343,4.23-20.076c1.142-6.334,3.342-12.388,4.567-18.7c1.166-6.015,1.668-12.051,2.234-18.14
						c0.607-6.529,1.814-13.032,5.409-18.634C192.238,352.931,191.372,352.43,191.025,352.971L191.025,352.971z"/>
				</g>
				<g>
					<path style="fill:#FFBC45;" d="M153.577,337.919c0.45,7.539,3.004,14.678,4.741,21.975c1.938,8.142,3.517,16.386,5.156,24.592
						c1.596,7.99,3.028,16.017,4.744,23.982c1.771,8.219,3.186,16.555,3.228,24.983c0.003,0.645,1.003,0.645,1,0
						c-0.038-7.584-1.2-15.076-2.689-22.495c-1.659-8.264-3.305-16.528-4.934-24.798c-1.563-7.93-3.136-15.872-4.901-23.76
						c-1.818-8.123-4.846-16.122-5.345-24.479C154.539,337.278,153.539,337.274,153.577,337.919L153.577,337.919z"/>
				</g>
				<g>
					<path style="fill:#FFBC45;" d="M128.717,379.606c7.533,7.17,13.728,15.555,19.393,24.242c2.868,4.399,5.467,9.011,8.062,13.577
						c2.903,5.108,4.557,10.515,6.659,15.962c0.23,0.595,1.197,0.337,0.964-0.266c-1.897-4.918-3.313-9.923-5.85-14.571
						c-2.671-4.894-5.488-9.788-8.5-14.479c-5.797-9.028-12.227-17.756-20.02-25.173
						C128.958,378.455,128.249,379.161,128.717,379.606L128.717,379.606z"/>
				</g>
				<g>
					<path style="fill:#FFBC45;" d="M130.096,393.076c6.07,4.078,12.724,7.283,18.465,11.845c0.499,0.397,1.212-0.306,0.707-0.707
						c-5.812-4.617-12.524-7.874-18.667-12.001C130.063,391.852,129.563,392.719,130.096,393.076L130.096,393.076z"/>
				</g>
				<g>
					<path style="fill:#FFBC45;" d="M146.815,392.3c2.222,2.929,3.55,6.703,4.802,10.116c1.538,4.192,2.62,8.611,3.625,12.957
						c0.145,0.628,1.109,0.361,0.964-0.266c-1.058-4.57-2.237-9.173-3.854-13.581c-1.205-3.285-2.542-6.922-4.674-9.73
						C147.294,391.289,146.425,391.786,146.815,392.3L146.815,392.3z"/>
				</g>
				<g>
					<path style="fill:#FFBC45;" d="M179.742,380.656c0.343,4.224,2.386,8.077,2.521,12.331c0.02,0.644,1.02,0.646,1,0
						c-0.136-4.262-2.178-8.108-2.521-12.331C180.69,380.019,179.689,380.013,179.742,380.656L179.742,380.656z"/>
				</g>
				<g>
					<path style="fill:#FFBC45;" d="M160.213,345.503c-1.4,4.394-1.21,9.183-1.804,13.718c-0.083,0.638,0.918,0.63,1,0
						c0.584-4.451,0.395-9.142,1.768-13.452C161.373,345.152,160.408,344.891,160.213,345.503L160.213,345.503z"/>
				</g>
				<g>
					<path style="fill:#FFBC45;" d="M152.262,363.732c2.196,3.097,3.99,6.438,6.252,9.488c2.08,2.807,3.781,5.515,4.546,8.956
						c0.14,0.63,1.104,0.362,0.964-0.266c-0.66-2.972-1.895-5.198-3.59-7.696c-2.467-3.634-4.769-7.406-7.309-10.986
						C152.755,362.707,151.888,363.205,152.262,363.732L152.262,363.732z"/>
				</g>
				<g>
					<path style="fill:#FFBC45;" d="M168.326,375.842c-1.021,6.154-2.014,12.311-2.602,18.525c-0.061,0.643,0.94,0.636,1,0
						c0.58-6.125,1.56-12.193,2.566-18.26C169.395,375.477,168.431,375.207,168.326,375.842L168.326,375.842z"/>
				</g>
				<g>
					<path style="fill:#FFBC45;" d="M194.694,359.941c-2.472,6.459-6.664,12.156-9.589,18.406c-0.272,0.58,0.59,1.088,0.863,0.504
						c2.963-6.33,7.185-12.1,9.689-18.645C195.889,359.603,194.922,359.346,194.694,359.941L194.694,359.941z"/>
				</g>
			</g>
			<g style="clip-path:url(#SVGID_00000092415573344026406560000006773515850043038618_);">
				<g>
					<path style="fill:#FFBC45;" d="M551.696,443.728c-1.944-4.666-4.44-8.914-7.873-12.641c-4.315-4.684-9.883-7.768-13.699-12.952
						c-3.743-5.086-6.898-10.803-10.003-16.293c-1.827-3.232-3.307-6.501-3.917-10.182c-0.595-3.586-0.44-7.309-0.18-10.917
						c-0.251,0.143-0.502,0.288-0.752,0.432c2.418,1.035,4.198,2.863,6.149,4.565c1.937,1.689,4.217,2.975,6.287,4.49
						c4.836,3.54,9.171,8.191,12.696,13.012c3.271,4.474,5.569,9.749,7.786,14.801c1.927,4.391,3.492,9.404,6.347,13.297
						c0.312,0.425,1.115,0.19,0.914-0.385c-3.526-10.079-4.944-20.782-4.622-31.439c0.146-4.833,0.73-9.733,1.468-14.508
						c0.717-4.634,1.839-9.33,4.231-13.405c-0.288,0-0.575,0-0.863,0c1.156,2.246,1.425,4.702,1.882,7.15
						c0.513,2.751,1.48,5.358,2.465,7.968c2.168,5.748,3.392,11.9,4.515,17.924c1.194,6.41,1.475,12.426,0.494,18.886
						c-0.899,5.921-2.539,11.711-3.771,17.566c-0.111,0.529,0.649,0.917,0.914,0.385c1.769-3.559,3.429-7.163,4.907-10.852
						c1.611-4.021,2.678-8.197,4.102-12.279c2.237-6.411,6.055-12.24,12.18-15.436c7.326-3.821,24.076-7.626,25.988,4.258
						c0.245-0.189,0.49-0.376,0.734-0.565c-11.068-4.686-19.746,5.656-25.304,13.898c-3.764,5.581-7.661,10.836-11.959,16.031
						c-1.706,2.063-3.235,4.604-5.223,6.394c-1.773,1.598-5.221,4.046-7.735,3.81c-0.643-0.061-0.637,0.94,0,1
						c3.334,0.313,7.954-3.069,9.811-5.632c3.79-5.232,8.29-9.911,12.081-15.147c6.246-8.623,14.509-25.128,27.825-19.491
						c0.418,0.178,0.808-0.107,0.734-0.565c-1.897-11.789-17.32-9.148-25.177-5.909c-5.966,2.46-10.161,6.836-13.048,12.596
						c-1.999,3.986-3.001,8.34-4.413,12.543c-1.716,5.108-3.972,10.022-6.367,14.842c0.305,0.128,0.609,0.257,0.914,0.385
						c1.292-6.149,2.958-12.22,3.902-18.439c0.905-5.962,0.615-11.684-0.452-17.591c-1.148-6.357-2.454-12.802-4.689-18.879
						c-0.969-2.635-1.875-5.216-2.465-7.967c-0.545-2.543-0.773-5.042-1.982-7.389c-0.175-0.34-0.681-0.311-0.863,0
						c-4.56,7.766-5.217,17.863-5.756,26.667c-0.689,11.249,0.855,22.817,4.577,33.454c0.305-0.128,0.609-0.257,0.914-0.385
						c-3.009-4.104-4.663-9.463-6.704-14.113c-2.354-5.365-4.935-10.713-8.482-15.4c-3.203-4.233-7.124-8.198-11.333-11.439
						c-2.407-1.855-5.06-3.372-7.354-5.373c-1.839-1.603-3.477-3.225-5.753-4.198c-0.357-0.152-0.723,0.024-0.752,0.432
						c-0.463,6.44-0.209,12.584,2.596,18.485c2.884,6.065,6.689,11.898,10.345,17.524c1.556,2.396,3.322,4.622,5.378,6.607
						c2.253,2.175,4.932,3.885,7.268,5.976c4.54,4.066,7.788,9.059,10.121,14.658C550.976,444.579,551.944,444.322,551.696,443.728
						L551.696,443.728z"/>
				</g>
				<g>
					<path style="fill:#FFBC45;" d="M544.883,444.361c-5.663-9.159-10.181-21.584-21.036-25.775
						c-5.777-2.229-12.759-0.962-18.182,1.611c-6.121,2.905-10.985,8.072-15.292,13.165c-0.307,0.362-0.026,0.986,0.486,0.836
						c9.27-2.731,20.908-3.296,29.5,1.829c4.104,2.447,7.315,6.604,10.552,10.05c2.14,2.278,3.709,6.11,7.021,6.906
						c0.627,0.15,0.893-0.814,0.266-0.965c-2.219-0.533-3.723-2.958-5.006-4.662c-1.221-1.621-2.606-3.04-3.987-4.523
						c-3.308-3.549-6.551-7.113-11.094-9.052c-8.541-3.642-18.769-3.125-27.517-0.548c0.162,0.279,0.324,0.558,0.486,0.836
						c7.89-9.33,19.343-19.038,32.5-14.518c5.393,1.852,9.262,6.805,12.288,11.376c2.975,4.492,5.32,9.36,8.151,13.938
						C544.357,445.413,545.223,444.911,544.883,444.361L544.883,444.361z"/>
				</g>
				<g>
					<path style="fill:#FFBC45;" d="M529.742,400.908c4.049,8.495,11.233,14.769,16.402,22.513
						c2.567,3.847,4.802,8.148,6.738,12.343c2.383,5.16,1.627,10.475,1.587,15.986c-0.005,0.646,0.995,0.645,1,0
						c0.034-4.658,0.831-9.586-0.726-14.06c-1.632-4.692-4.374-9.173-6.892-13.435c-5.021-8.498-12.958-14.854-17.247-23.851
						C530.328,399.822,529.466,400.33,529.742,400.908L529.742,400.908z"/>
				</g>
				<g>
					<path style="fill:#FFBC45;" d="M516.023,426.634c7.409,3.926,14.646,8.024,19.781,14.812c1.823,2.409,3.602,4.852,5.455,7.237
						c0.545,0.701,2.055,3.313,3.191,3.193c0.635-0.066,0.641-1.067,0-1c-0.835,0.087-3.539-4.273-3.944-4.81
						c-1.681-2.22-3.31-4.48-5.022-6.676c-4.84-6.202-12.14-10.008-18.957-13.62C515.958,425.469,515.453,426.332,516.023,426.634
						L516.023,426.634z"/>
				</g>
				<g>
					<path style="fill:#FFBC45;" d="M557.477,399.151c0.082,4.406,1.279,8.639,1.795,12.995c0.617,5.22,0.116,10.629-0.651,15.802
						c-1.413,9.524-0.756,19.19-3.381,28.553c0.328,0.044,0.655,0.089,0.982,0.133c0-0.376,0-0.752,0-1.128c0-0.645-1-0.645-1,0
						c0,0.376,0,0.752,0,1.128c0,0.567,0.829,0.677,0.982,0.133c2.538-9.054,2.32-18.522,3.297-27.803
						c0.529-5.026,1.159-9.914,0.915-14.989c-0.24-5-1.846-9.807-1.94-14.823C558.466,398.507,557.466,398.506,557.477,399.151
						L557.477,399.151z"/>
				</g>
				<g>
					<path style="fill:#FFBC45;" d="M590.035,405.483c-7.648,4.839-13.204,13.202-17.567,20.965
						c-4.198,7.47-7.89,16.677-16.246,20.361c-0.589,0.26-0.08,1.121,0.504,0.863c7.437-3.278,11.354-10.984,15.007-17.784
						c4.639-8.634,10.353-18.193,18.807-23.542C591.083,406.003,590.581,405.138,590.035,405.483L590.035,405.483z"/>
				</g>
			</g>
		</g>
	</g>
	<g>
		<g>
			<path style="fill:#FFBC45;" d="M381.785,241.219c0,5.321-4.313,9.636-9.634,9.636l0,0c-5.321,0-9.635-4.315-9.635-9.636v-6.686
				c0-5.32,4.314-9.634,9.635-9.634l0,0c5.321,0,9.634,4.314,9.634,9.634V241.219z"/>
			<path style="fill:#FFBC45;" d="M479.95,346.412c-2.656-12.979-14.157-48.074-42.175-60.757
				c-28.021-12.683-54.271-2.359-64.002,3.537c-9.733,5.898-20.939,28.905-25.953,50.435c-5.015,21.53-22.121,21.237-35.393,25.955
				l6.193,22.416l136.85,0.884c0,0,0,0,0.295-3.539C491.452,383.278,482.606,359.388,479.95,346.412z M340.004,380.772
				c5.456,0,29.788-18.287,34.802-17.698c2.506,13.42,2.803,20.499,3.097,21.385C378.199,385.343,341.478,391.831,340.004,380.772z"
				/>
			<path style="fill:#FFE4B5;" d="M388.618,295.39c-1.769,8.453-9.044,60.167,3.345,94.183c9.632,0.785,23.986,0,23.986,0
				c-2.752-17.894-8.258-67.444,3.145-95.757C407.691,294.011,388.618,295.39,388.618,295.39z"/>
			<path style="fill:#FFE4B5;" d="M394.91,280.051c-9.732,0.593-11.994,11.111-7.569,17.599c4.423,6.488,12.778,1.178,14.254-2.064
				c10.521,9.929,24.186,0.983,27.134-13.764C428.728,280.644,412.018,277.398,394.91,280.051z"/>
			<path style="fill:#FFBC45;" d="M422.635,226.743c-0.443-9.814-10.52-28.541-34.409-27.483
				c-17.007,1.309-19.072,17.419-19.072,17.419c-0.59,1.809-3.638,5.635-3.638,5.635c-0.884-7.549,3.889-27.552,25.365-28.088
				c24.184-0.604,35.733,18.323,36.179,31.915C425.141,229.311,422.635,226.743,422.635,226.743z"/>
			<path style="fill:#31241C;" d="M375.188,208.175c-8.168,5.596-13.061,14.909-8.921,24.17c4.14,9.265,5.314,13.345,1.299,20.592
				c-5.648,10.194-8.029,19.711-3.779,28.365c25.619-3.538,36.892-6.419,36.892-6.419S390.773,207.094,375.188,208.175z"/>
			<path style="fill:#C97440;" d="M413.218,254.819c0,0,6.336,19.092,6.936,27.159c0.546,7.396-23.93,12.332-25.666,4.578
				c-1.81-9.226-4.499-24.909-4.499-24.909"/>
			<path style="fill:#AB5D2D;" d="M415.252,262.792l-2.034-7.973l-23.229,6.828c0,0,0.828,4.818,1.888,10.858
				c1.725,0.328,3.507,0.486,5.342,0.402C404.781,272.574,411.309,268.61,415.252,262.792z"/>
			<path style="fill:#C97440;" d="M372.611,245.543c0.567,12.715,11.335,22.558,24.043,21.99l0,0
				c12.712-0.567,22.559-11.332,21.991-24.048l-1.088-24.341c-0.567-12.713-11.336-22.559-24.046-21.988l0,0
				c-12.712,0.567-22.557,11.332-21.988,24.045L372.611,245.543z"/>
			<g>
				<path style="fill:#31241C;" d="M403.017,220.34c-2.907-1.561-6.727-2.286-9.767-0.718c-1.137,0.586-0.134,2.299,1.002,1.713
					c2.368-1.222,5.521-0.486,7.763,0.718C403.142,222.658,404.144,220.945,403.017,220.34L403.017,220.34z"/>
			</g>
			<g>
				<path style="fill:#31241C;" d="M375.235,223.553c1.374-1.301,3.342-1.776,5.173-1.4c1.249,0.256,1.78-1.656,0.527-1.913
					c-2.543-0.521-5.196,0.103-7.104,1.91C372.901,223.032,374.307,224.432,375.235,223.553L375.235,223.553z"/>
			</g>
			<g>
				<path style="fill:#31241C;" d="M388.963,241.306c-0.177,0-0.354-0.062-0.496-0.187l-4.488-3.953
					c-0.182-0.161-0.275-0.4-0.25-0.642s0.167-0.456,0.378-0.575l4.522-2.545c0.363-0.203,0.819-0.074,1.022,0.286
					c0.203,0.361,0.075,0.818-0.285,1.021l-3.603,2.026l3.696,3.255c0.31,0.274,0.341,0.748,0.066,1.059
					C389.378,241.22,389.171,241.306,388.963,241.306z"/>
			</g>
			<g>
				<path style="fill:#31241C;" d="M390.626,247.669c-1.209,0-2.399-0.319-3.325-0.952c-0.342-0.234-0.43-0.7-0.196-1.042
					c0.232-0.341,0.699-0.429,1.042-0.197c1.273,0.871,3.415,0.913,4.876,0.099c0.88-0.491,1.909-1.501,1.816-3.529
					c-0.02-0.414,0.301-0.765,0.715-0.783c0.406-0.023,0.764,0.301,0.783,0.715c0.1,2.18-0.818,3.923-2.584,4.908
					C392.815,247.41,391.713,247.669,390.626,247.669z"/>
			</g>
			<path style="fill:#1A191F;" d="M394.003,233.005c0.547,1.446,2.164,2.177,3.61,1.629c1.443-0.545,2.178-2.16,1.628-3.607
				c-0.547-1.449-2.161-2.18-3.608-1.633C394.185,229.94,393.458,231.557,394.003,233.005z"/>
			<path style="fill:#1A191F;" d="M377.258,234.007c0.547,1.444,2.163,2.18,3.61,1.632c1.444-0.545,2.179-2.165,1.632-3.612
				c-0.548-1.446-2.163-2.174-3.609-1.626C377.443,230.945,376.712,232.56,377.258,234.007z"/>
			<g>
				<path style="fill:#1A191F;" d="M377.981,233.346c-0.117,0-0.235-0.031-0.343-0.097l-2.732-1.674
					c-0.31-0.19-0.407-0.596-0.217-0.906c0.19-0.31,0.597-0.406,0.906-0.217l2.731,1.674c0.31,0.19,0.408,0.596,0.218,0.906
					C378.42,233.234,378.203,233.346,377.981,233.346z"/>
			</g>
			<g>
				<path style="fill:#1A191F;" d="M397.823,232.362c-0.209,0-0.414-0.099-0.542-0.284c-0.207-0.299-0.133-0.709,0.166-0.916
					l2.856-1.98c0.299-0.208,0.709-0.132,0.916,0.167c0.207,0.299,0.133,0.709-0.166,0.917l-2.856,1.979
					C398.083,232.324,397.952,232.362,397.823,232.362z"/>
			</g>
			<path style="fill:#31241C;" d="M440.556,245.689c-3.821-8.233,0.896-13.345-1.138-21.189c-1.783-6.861-9.949-6.648-14.161-16.367
				c-6.454-14.902-39.661-28.318-52.043,1.922c13.765-9.333,27.873-4.482,33.228,2.418c10.799,13.914-0.282,19.809,3.886,28.083
				c3.037,6.028,5.028,10.09,1.103,19.214c-3.925,9.123,1.57,17.8,1.57,17.8c12.851-1.423,27.379-2.686,40.578-4.922
				C453.58,250.38,444.374,253.923,440.556,245.689z"/>
			<path style="fill:#C97440;" d="M382.129,359.684c-11.205,0.982-15.531,4.326-25.56,9.636c-10.028,5.309-12.19,6.488-9.832,7.472
				c-5.898,0.393-2.458,3.537,1.671,2.16c-2.751,1.181,1.082,2.46,6.587,0.395c1.376,2.163,8.456,1.183,12.978-1.375
				c4.522-2.557,15.337-4.721,25.167-1.377c1.182-6.095-2.555-16.713-2.555-16.713L382.129,359.684z"/>
			<path style="fill:#FFBC45;" d="M389.257,359.831c6.046-1.326,22.957-2.705,32.985-2.113c0.59,7.864-3.736,23.791-3.736,23.791
				l-26.742-5.9C391.764,375.608,393.094,367.204,389.257,359.831z"/>
			<g>
				<path style="fill:#1F0E03;" d="M388.751,359.971c11.94-1.726,24.015-1.692,36.048-2.031c5.797-0.164,11.357-0.837,17.101-1.494
					c5.46-0.624,11.926,0.561,17.175,2.149c0.619,0.187,0.881-0.778,0.266-0.965c-4.846-1.466-10.52-2.43-15.594-2.32
					c-2.515,0.054-5.035,0.569-7.515,0.939c-3.451,0.515-6.968,0.548-10.449,0.66c-12.456,0.403-24.934,0.31-37.297,2.097
					C387.849,359.098,388.12,360.061,388.751,359.971L388.751,359.971z"/>
			</g>
			<g>
				<path style="fill:#1F0E03;" d="M442.011,329.339c1.138,8.305,1.73,16.654,1.753,25.036c0.002,0.645,1.002,0.645,1,0
					c-0.023-8.474-0.639-16.907-1.788-25.302C442.888,328.436,441.925,328.709,442.011,329.339L442.011,329.339z"/>
			</g>
			<g>
				<path style="fill:#1F0E03;" d="M390.977,376.108c3.615-0.043,6.965,1.56,10.395,2.49c4.075,1.105,8.065,2.49,12.138,3.607
					c8.232,2.257,16.792,3.69,25.314,4.183c13.56,0.784,29.965,0.119,40.203-10.032c0.458-0.454-0.249-1.161-0.707-0.707
					c-10.701,10.61-28.289,10.623-42.332,9.55c-8.399-0.643-16.82-2.355-24.898-4.718c-3.629-1.062-7.25-2.171-10.873-3.253
					c-3.05-0.911-6.004-2.159-9.239-2.12C390.333,375.116,390.332,376.116,390.977,376.108L390.977,376.108z"/>
			</g>
			<g>
				<path style="fill:#1F0E03;" d="M371.03,319.048c-0.894,2.683-0.627,5.568-0.588,8.355c0.054,3.835,0.336,7.663,0.536,11.491
					c0.197,3.781,0.311,7.565,0.615,11.339c0.28,3.484,1.598,6.787,1.779,10.238c0.034,0.642,1.034,0.645,1,0
					c-0.166-3.156-1.376-6.142-1.694-9.297c-0.349-3.453-0.458-6.931-0.611-10.397c-0.155-3.495-0.394-6.985-0.539-10.48
					c-0.145-3.498-0.653-7.621,0.467-10.984C372.198,318.7,371.232,318.44,371.03,319.048L371.03,319.048z"/>
			</g>
			<g>
				<path style="fill:#1F0E03;" d="M386.17,284.833c-1.569,5.535-2.674,12.6,3.533,15.712c2.238,1.122,4.788,0.566,6.947-0.412
					c1.518-0.688,2.84-1.849,4.094-2.924c1.268-1.087,1.824,0.561,2.945,1.363c9.12,6.522,21.126-2.509,24.146-11.507
					c0.205-0.613-0.761-0.874-0.965-0.266c-3.223,9.602-16.995,18.42-24.923,8.628c-0.178-0.22-0.521-0.167-0.707,0
					c-3.288,2.956-7.563,6.456-12.048,3.687c-4.889-3.019-3.324-9.554-2.059-14.016C387.31,284.477,386.346,284.214,386.17,284.833
					L386.17,284.833z"/>
			</g>
			<g>
				<path style="fill:#1F0E03;" d="M354.54,380.224c3.151-0.56,5.677-2.531,8.329-4.194c3.655-2.293,7.761-3.61,11.726-5.245
					c0.587-0.242,0.331-1.211-0.266-0.965c-3.273,1.351-6.625,2.491-9.788,4.097c-3.438,1.744-6.371,4.651-10.267,5.343
					C353.64,379.372,353.91,380.335,354.54,380.224L354.54,380.224z"/>
			</g>
			<g>
				<path style="fill:#1F0E03;" d="M347.385,380.173c7.963-3.363,15.298-8.089,23.473-10.962c0.604-0.213,0.344-1.179-0.266-0.965
					c-8.258,2.903-15.669,7.666-23.712,11.064C346.288,379.56,346.798,380.421,347.385,380.173L347.385,380.173z"/>
			</g>
			<g>
				<path style="fill:#1F0E03;" d="M345.614,377.813c3.145-1.909,6.734-2.797,9.966-4.514c3.202-1.7,6.385-3.443,9.697-4.924
					c0.588-0.263,0.079-1.124-0.505-0.863c-3.312,1.48-6.498,3.219-9.696,4.924c-3.233,1.723-6.818,2.603-9.967,4.514
					C344.559,377.283,345.061,378.148,345.614,377.813L345.614,377.813z"/>
			</g>
			<g>
				<path style="fill:#1F0E03;" d="M397.475,303.927c0.336,1.775,2.848,1.714,3.66,0.342c0.451-0.762-0.039-1.66-0.735-2.056
					c-0.853-0.485-2.141-0.402-2.725,0.443c-0.367,0.532,0.5,1.031,0.863,0.504c0.44-0.637,2.279,0.028,1.633,0.743
					c-0.491,0.543-1.575,0.585-1.731-0.242C398.319,303.028,397.355,303.297,397.475,303.927L397.475,303.927z"/>
			</g>
			<g>
				<path style="fill:#1F0E03;" d="M396.149,311.327c-0.255,1.769,1.796,2.267,2.985,1.282c0.607-0.502,0.925-1.47,0.413-2.153
					c-0.532-0.711-1.565-0.596-2.312-0.36c-0.612,0.193-0.351,1.159,0.266,0.965c0.373-0.118,0.86-0.258,1.223-0.043
					c0.31,0.183-0.105,0.74-0.271,0.862c-0.365,0.267-1.447,0.464-1.339-0.287C397.205,310.962,396.241,310.69,396.149,311.327
					L396.149,311.327z"/>
			</g>
			<g>
				<path style="fill:#1F0E03;" d="M395.541,320.898c0.088,2.006,3.047,1.206,3.344-0.31c0.361-1.85-2.863-2.863-3.179-0.855
					c-0.099,0.631,0.865,0.901,0.965,0.266c0.121-0.772,1.225-0.243,1.238,0.357c0.011,0.473-1.343,1.115-1.368,0.543
					C396.513,320.256,395.513,320.254,395.541,320.898L395.541,320.898z"/>
			</g>
			<g>
				<path style="fill:#1F0E03;" d="M376.075,375.608c-0.149,1.475,0.06,3.179,0.608,4.559c0.235,0.592,1.203,0.334,0.965-0.266
					c-0.523-1.315-0.716-2.887-0.573-4.293C377.141,374.967,376.14,374.974,376.075,375.608L376.075,375.608z"/>
			</g>
			<g>
				<path style="fill:#1F0E03;" d="M388.564,360.115c1.865,1.312,2.014,3.912,2.541,5.937c0.699,2.679,1.218,6.003,0.032,8.619
					c-0.265,0.582,0.598,1.091,0.863,0.504c1.339-2.952,0.78-6.334,0.069-9.39c-0.552-2.368-0.879-5.041-3.002-6.533
					C388.54,358.88,388.041,359.748,388.564,360.115L388.564,360.115z"/>
			</g>
			<g>
				<path style="fill:#1F0E03;" d="M364.443,246.985c-1.571,11.663,15.658,11.701,23.096,11.347c0.642-0.03,0.645-1.03,0-1
					c-6.565,0.313-23.575,0.628-22.132-10.081C365.492,246.621,364.528,246.349,364.443,246.985L364.443,246.985z"/>
			</g>
			<path style="fill:#FFBC45;" d="M393.339,257.686c0,1.655-1.651,2.998-3.688,2.998c-2.035,0-3.685-1.343-3.685-2.998
				c0-1.656,1.649-3.001,3.685-3.001C391.688,254.686,393.339,256.03,393.339,257.686z"/>
			<path style="fill:#FFBC45;" d="M390.881,194.226c-12.251,0.308-19.06,6.944-22.49,13.993c1.168,0.129,2.431,0.472,3.482,0.969
				c2.539-4.398,7.354-9.234,16.353-9.928c23.89-1.058,33.966,17.669,34.409,27.483c0,0,2.506,2.568,4.425-0.603
				C426.614,212.549,415.064,193.622,390.881,194.226z"/>
			<path style="fill:#FFBC45;" d="M434.826,241.219c0,5.321-4.315,9.636-9.634,9.636l0,0c-5.324,0-9.636-4.315-9.636-9.636v-6.686
				c0-5.32,4.312-9.634,9.636-9.634l0,0c5.319,0,9.634,4.314,9.634,9.634V241.219z"/>
			<g>
				<path style="fill:#1F0E03;" d="M432.557,240.19c-0.35,6.504-9.078,7.993-11.474,1.887c-0.715-1.822-0.308-4.404-0.308-6.322
					c0-6.655,9.151-7.804,11.474-1.886C432.964,235.69,432.557,238.272,432.557,240.19c0,0.645,1,0.645,1,0
					c0-4.013,0.393-7.884-3.413-10.383c-4.61-3.028-10.104,1.036-10.368,5.948c-0.213,3.947-0.245,7.982,3.412,10.385
					c4.611,3.028,10.104-1.037,10.369-5.949C433.592,239.546,432.591,239.549,432.557,240.19z"/>
			</g>
		</g>
		<g>
			<path style="fill:#5F7E91;" d="M319.8,380.133c5.506,0,73.34,0,76.88,0c3.54,0,4.326,7.079-1.572,7.079
				c-5.898,0-176.371,0-176.371,0c-5.31-10.618-29.101-75.505-31.46-81.6c-2.359-6.095-0.196-13.174,9.438-13.174
				c9.634,0,60.559,0,67.638,0c7.078,0,14.943,1.177,19.858,11.993C289.128,315.247,319.8,380.133,319.8,380.133z"/>
			<path style="fill:#49687A;" d="M396.924,386.931c0.232-0.081,0.44-0.18,0.636-0.284c0.02-0.009,0.038-0.016,0.054-0.026
				c3.02-1.691,1.983-6.487-0.933-6.487c-0.576,0-2.858,0-6.293,0c-17.669,0-65.976,0-70.587,0c0,0-0.024-0.053-0.06-0.13
				c-0.035-0.073-0.083-0.173-0.149-0.313c-0.273-0.577-0.806-1.708-1.56-3.303c-6.597-13.96-29.618-62.712-33.819-71.955
				c-4.915-10.816-12.781-11.993-19.858-11.993c-1.117,0-3.329,0-6.294,0c7.079,0,14.944,1.177,19.86,11.993
				c4.915,10.815,35.588,75.701,35.588,75.701l2.655,6.887c0,0,3.314,0.079,8.605,0.192c27.539,0,52.654,0,64.047,0
				c3.486,0,5.708,0,6.292,0c0.354,0,0.68-0.029,0.986-0.077c0.195-0.03,0.37-0.084,0.546-0.134
				C396.733,386.976,396.836,386.96,396.924,386.931z"/>
			<path style="fill:none;stroke:#1F0E03;stroke-miterlimit:10;" d="M255.898,340.81c1.941,4.8-0.359,8.69-5.137,8.69
				c-4.778,0-10.226-3.89-12.165-8.69c-1.94-4.802,0.359-8.694,5.137-8.694C248.511,332.116,253.958,336.009,255.898,340.81z"/>
		</g>
		<g>
			<path style="fill:#F5CDB3;" d="M486.876,392.701H209.523v43.966c30.447,6.482,71.483,11.166,111.895,11.677
				c55.322,0.699,112.686,0.071,165.458-2.495V392.701z"/>
			<path style="fill:#C97440;" d="M498.386,391.605c0,2.622-2.128,4.751-4.752,4.751H202.763c-2.623,0-4.75-2.129-4.75-4.751l0,0
				c0-2.624,2.127-4.752,4.75-4.752h290.871C496.258,386.853,498.386,388.981,498.386,391.605L498.386,391.605z"/>
		</g>
	</g>
	<g>
		<path style="fill:#FFBC45;" d="M176.095,223.174c6.593,6.247,11.977,6.247,11.965-0.001c-0.014-6.245-0.035-16.467-0.047-22.713
			c-0.014-6.247-5.408-11.358-11.989-11.358c-6.581,0-17.35,0-23.93,0c-6.58,0-6.569,5.111,0.023,11.358
			C158.711,206.707,169.502,216.928,176.095,223.174z"/>
		<path style="fill:#FFBC45;" d="M333.345,162.723c0,21.198-17.184,38.383-38.382,38.383H154.061
			c-21.198,0-38.382-17.185-38.382-38.383v-50.565c0-21.196,17.184-38.381,38.382-38.381h140.902
			c21.198,0,38.382,17.185,38.382,38.381V162.723z"/>
		<text transform="matrix(1 0 0 1 212.2329 113.5625)" style="fill:#C97440; font-family:'Raleway-Bold'; font-size:21.9325px;">HELP!</text>
		<rect x="214.5" y="123.754" style="fill:#FFF2DB;" width="98.27" height="6.391"/>
		<rect x="214.5" y="139.278" style="fill:#FFF2DB;" width="84.861" height="6.389"/>
		<rect x="214.5" y="154.804" style="fill:#FFF2DB;" width="56.288" height="6.389"/>
		<rect x="214.5" y="170.325" style="fill:#FFF2DB;" width="91.038" height="6.392"/>
		<g>
			<path style="fill:#31241C;" d="M194.993,174.348c-2.927-7.271-13.06-12.468-18.236-12.398h-17.482
				c-5.748,0.541-15.309,5.127-18.237,12.398c6.846,6.777,16.4,10.989,26.978,10.989
				C178.593,185.337,188.146,181.125,194.993,174.348z"/>
			<path style="fill:#C97440;" d="M160.875,147.023c0,0-1.674,13.755-2.83,21.531c-0.844,5.681,19.543,7.277,20.162,1.153
				c0.541-7.263,1.163-19.573,1.163-19.573"/>
			<path style="fill:#AB5D2D;" d="M160.046,153.343l0.829-6.32l18.495,3.111c0,0-0.193,3.782-0.451,8.525
				c-1.297,0.411-2.653,0.698-4.07,0.804C169,159.9,163.614,157.454,160.046,153.343z"/>
			<path style="fill:#C97440;" d="M191.251,136.146c0.736,9.831-6.637,18.393-16.466,19.13l0,0
				c-9.829,0.733-18.394-6.639-19.128-16.471l-1.408-18.822c-0.736-9.827,6.639-18.394,16.467-19.125l0,0
				c9.83-0.737,18.394,6.636,19.129,16.464L191.251,136.146z"/>
			<g>
				<path style="fill:#31241C;" d="M166.952,121.952c2.503-0.53,4.512-1.646,6.013-3.741c0.747-1.042-0.975-2.032-1.713-1.002
					c-1.193,1.665-2.867,2.414-4.828,2.83C165.173,120.304,165.704,122.216,166.952,121.952L166.952,121.952z"/>
			</g>
			<g>
				<path style="fill:#31241C;" d="M187.146,118.05c-1.401-0.263-2.262-0.928-2.949-2.172c-0.618-1.12-2.332-0.119-1.713,1.002
					c0.913,1.653,2.263,2.732,4.134,3.084C187.87,120.198,188.403,118.286,187.146,118.05L187.146,118.05z"/>
			</g>
			<g>
				<path style="fill:#31241C;" d="M178.215,134.568c-0.178,0-0.356-0.063-0.499-0.191c-0.309-0.276-0.335-0.75-0.059-1.059
					l2.384-2.667l-2.737-1.135c-0.383-0.159-0.564-0.598-0.406-0.98c0.158-0.383,0.597-0.565,0.98-0.406l3.713,1.54
					c0.225,0.093,0.39,0.289,0.444,0.526c0.054,0.237-0.01,0.485-0.172,0.667l-3.088,3.455
					C178.626,134.484,178.421,134.568,178.215,134.568z"/>
			</g>
			<g>
				<path style="fill:#31241C;" d="M173.707,142.154c-0.235,0-0.467-0.11-0.613-0.317c-0.239-0.338-0.159-0.806,0.179-1.045
					c2.954-2.088,5.604-2.928,7.886-2.496c0.407,0.077,0.674,0.47,0.597,0.877c-0.078,0.406-0.469,0.671-0.877,0.597
					c-1.861-0.354-4.131,0.402-6.739,2.247C174.008,142.11,173.857,142.154,173.707,142.154z"/>
			</g>
			<path style="fill:#1A191F;" d="M173.643,128.475c-0.287,1.162-1.463,1.873-2.627,1.587c-1.16-0.287-1.874-1.463-1.584-2.627
				c0.286-1.164,1.46-1.875,2.624-1.586C173.218,126.134,173.93,127.312,173.643,128.475z"/>
			<path style="fill:#1A191F;" d="M186.614,127.701c-0.287,1.159-1.461,1.876-2.626,1.587c-1.162-0.284-1.874-1.465-1.587-2.627
				c0.286-1.162,1.463-1.872,2.626-1.582C186.19,125.364,186.902,126.539,186.614,127.701z"/>
			<path style="fill:#C97440;" d="M159.078,134.081c0.845,3.477-1.288,6.983-4.768,7.826l0,0c-3.479,0.846-6.983-1.287-7.828-4.767
				l-0.483-1.988c-0.845-3.479,1.289-6.982,4.768-7.828l0,0c3.477-0.845,6.983,1.29,7.828,4.768L159.078,134.081z"/>
			<path style="fill:#31241C;" d="M149.301,127.972c-1.523-4.339-8.949-21.99,2.094-22.524c0.685-6.93,10.319-10.585,22.351-12.945
				c12.033-2.359,19.534,3.275,18.62,8.91c-0.914,5.636-8.302,7.691-14.165,6.016c-1.675,6.092-9.748,4.038-11.499,2.818
				c-1.352,5.902-8.055,7.33-7.292,11.442c0.762,4.113,1.104,8.3,1.256,9.139c0.152,0.839-3.35,2.476-4.112,0.799
				C155.792,129.953,152.785,126.945,149.301,127.972z"/>
		</g>
		<g>
			<path style="fill:#1F0E03;" d="M182.563,224.352c7.302,1.449,3.118-23.325,3.069-27.06c-0.166,0.166-0.333,0.333-0.5,0.5
				c15.715,0.14,31.434,0.181,47.15,0.043c11.234-0.098,22.459-0.386,33.695-0.385c6.909,0,13.781-0.255,20.682-0.521
				c7.399-0.286,14.775-0.261,21.984-2.177c13.791-3.664,18.812-18.246,20.236-31.043c0.071-0.641-0.93-0.633-1,0
				c-1.058,9.498-3.937,19.906-11.577,26.233c-5.755,4.766-14.237,5.371-21.379,5.717c-7.112,0.346-14.255,0.647-21.375,0.749
				c-22.522,0.323-45.062,0.543-67.588,0.492c-6.942-0.016-13.886-0.047-20.828-0.108c-0.27-0.002-0.503,0.229-0.5,0.5
				c0.041,3.15,3.298,27.108-1.804,26.096C182.199,223.263,181.93,224.227,182.563,224.352L182.563,224.352z"/>
		</g>
		<g>
			<path style="fill:#1F0E03;" d="M328.412,120.908c0.008,12.421,0.542,24.912-0.305,37.315c-0.044,0.644,0.957,0.64,1,0
				c0.847-12.404,0.314-24.894,0.305-37.315C329.411,120.263,328.411,120.263,328.412,120.908L328.412,120.908z"/>
		</g>
	</g>
	<g>
		<path style="fill:#FFBC45;" d="M716.675,283.174c0,21.977-17.816,39.792-39.793,39.792h-146.08
			c-21.977,0-39.793-17.815-39.793-39.792v-52.423c0-21.977,17.816-39.793,39.793-39.793h146.08
			c21.977,0,39.793,17.816,39.793,39.793V283.174z"/>
		<path style="fill:#FFBC45;" d="M536.058,345.846c-6.836,6.475-12.419,6.475-12.405-0.001c0.015-6.474,0.037-17.072,0.05-23.547
			c0.014-6.477,5.607-11.775,12.429-11.775c6.822,0,17.986,0,24.809,0c6.822,0,6.811,5.298-0.025,11.775
			C554.079,328.774,542.893,339.371,536.058,345.846z"/>
		<text transform="matrix(1 0 0 1 520.1934 234.9814)" style="fill:#C97440; font-family:'Raleway-Bold'; font-size:22.7385px;">THANKS!</text>
		<rect x="517.496" y="245.548" style="fill:#FFF2DB;" width="101.882" height="6.624"/>
		<rect x="517.496" y="261.641" style="fill:#FFF2DB;" width="87.98" height="6.628"/>
		<rect x="517.496" y="277.736" style="fill:#FFF2DB;" width="58.355" height="6.625"/>
		<g>
			<path style="fill:#31241C;" d="M642.759,297.686c3.036-7.539,13.539-12.927,18.906-12.856h18.125
				c5.958,0.561,15.872,5.317,18.906,12.856c-7.098,7.025-17,11.391-27.968,11.391C659.762,309.077,649.857,304.712,642.759,297.686
				z"/>
			<g>
				<path style="fill:#C97440;" d="M678.131,269.356c0,0,1.735,14.259,2.935,22.322c0.875,5.889-20.262,7.544-20.903,1.195
					c-0.563-7.529-1.206-20.291-1.206-20.291"/>
				<path style="fill:#AB5D2D;" d="M678.989,275.909l-0.858-6.553l-19.175,3.227c0,0,0.199,3.922,0.468,8.839
					c1.346,0.426,2.75,0.722,4.22,0.832C669.706,282.707,675.29,280.171,678.989,275.909z"/>
				<path style="fill:#C97440;" d="M646.637,258.081c-0.761,10.191,6.884,19.068,17.072,19.833l0,0
					c10.189,0.76,19.07-6.883,19.83-17.075L685,241.324c0.763-10.191-6.884-19.07-17.071-19.829l0,0
					c-10.192-0.763-19.072,6.88-19.831,17.07L646.637,258.081z"/>
				<g>
					<path style="fill:#31241C;" d="M671.971,241.556c-1.005-1.933-3.234-3.272-5.438-3.017c-1.256,0.146-1.27,2.132,0,1.984
						c1.563-0.182,3.006,0.652,3.725,2.034C670.848,243.693,672.56,242.689,671.971,241.556L671.971,241.556z"/>
				</g>
				<g>
					<path style="fill:#31241C;" d="M651.871,241.01c0.867-0.909,2.459-1.535,3.701-1.234c1.243,0.301,1.771-1.613,0.527-1.913
						c-1.923-0.465-4.27,0.317-5.631,1.744C649.586,240.532,650.986,241.938,651.871,241.01L651.871,241.01z"/>
				</g>
				<g>
					<path style="fill:#31241C;" d="M660.154,256.417c-0.206,0-0.411-0.084-0.56-0.25l-3.203-3.583
						c-0.161-0.182-0.226-0.43-0.172-0.667c0.054-0.236,0.22-0.433,0.444-0.525l3.85-1.597c0.382-0.158,0.821,0.022,0.979,0.406
						c0.159,0.382-0.022,0.821-0.405,0.98l-2.873,1.192l2.499,2.795c0.275,0.309,0.249,0.783-0.06,1.06
						C660.511,256.354,660.332,256.417,660.154,256.417z"/>
				</g>
				<g>
					<path style="fill:#31241C;" d="M659.863,266.69C659.862,266.69,659.863,266.69,659.863,266.69
						c-2.056,0-3.446-2.177-4.253-6.656c-0.043-0.237,0.031-0.481,0.199-0.654c0.169-0.174,0.413-0.252,0.648-0.221
						c1.265,0.186,2.869,0.378,5.188,0.378c1.194,0,2.492-0.049,3.968-0.149c0.272-0.023,0.542,0.117,0.689,0.355
						c0.146,0.236,0.148,0.535,0.007,0.774C663.859,264.67,661.75,266.69,659.863,266.69z M657.29,260.784
						c0.627,2.815,1.547,4.405,2.572,4.405c0.66,0,2.069-0.581,4.409-4.222C661.567,261.101,659.507,261.052,657.29,260.784z"/>
				</g>
				<path style="fill:#1A191F;" d="M664.893,250.126c0.299,1.207,1.518,1.943,2.724,1.645c1.204-0.298,1.943-1.518,1.644-2.724
					c-0.297-1.205-1.515-1.942-2.722-1.646C665.332,247.7,664.598,248.921,664.893,250.126z"/>
				<path style="fill:#1A191F;" d="M651.445,249.326c0.297,1.202,1.517,1.942,2.723,1.645c1.203-0.297,1.944-1.519,1.646-2.724
					c-0.299-1.205-1.518-1.939-2.722-1.643C651.887,246.902,651.146,248.119,651.445,249.326z"/>
			</g>
			<path style="fill:#C97440;" d="M679.995,255.939c-0.876,3.605,1.336,7.238,4.941,8.115l0,0c3.607,0.876,7.242-1.335,8.115-4.943
				l0.501-2.061c0.879-3.605-1.334-7.239-4.941-8.116l0,0c-3.606-0.876-7.241,1.339-8.116,4.944L679.995,255.939z"/>
			<path style="fill:#31241C;" d="M690.132,249.607c1.578-4.501,9.275-22.802-2.172-23.353
				c-0.712-7.186-10.698-10.975-23.172-13.422c-12.474-2.446-20.253,3.396-19.306,9.238c0.948,5.843,8.607,7.972,14.685,6.236
				c1.737,6.316,10.105,4.184,11.923,2.922c1.401,6.118,8.349,7.599,7.561,11.862c-0.791,4.264-1.146,8.605-1.305,9.476
				c-0.156,0.87,3.474,2.564,4.267,0.827C683.399,251.658,686.519,248.54,690.132,249.607z"/>
		</g>
		<g>
			<path style="fill:#1F0E03;" d="M676.413,320.017c14.688-0.582,30.431-9.928,33.559-25.108c0.13-0.629-0.835-0.897-0.965-0.266
				c-3.037,14.742-18.327,23.809-32.594,24.374C675.771,319.042,675.768,320.042,676.413,320.017L676.413,320.017z"/>
		</g>
		<g>
			<path style="fill:#1F0E03;" d="M664.262,320.097c2.68,0.096,5.36,0.148,8.041,0.208c0.646,0.015,0.644-0.985,0-1
				c-2.681-0.06-5.361-0.112-8.041-0.208C663.616,319.073,663.619,320.074,664.262,320.097L664.262,320.097z"/>
		</g>
		<g>
			<path style="fill:#1F0E03;" d="M535.832,342.185c5.036-4.53,10.091-9.038,14.824-13.889c2.189-2.244,4.143-5.173,6.788-6.949
				c1.565-1.052,3.508-1.221,5.338-1.326c3.603-0.208,7.229-0.114,10.836-0.163c6.542-0.09,13.074-0.439,19.618-0.427
				c7.01,0.014,14.016,0.33,21.017,0.649c13.637,0.622,27.308,1.267,40.919-0.136c0.635-0.065,0.642-1.066,0-1
				c-13.926,1.435-27.913,0.729-41.863,0.093c-7.334-0.334-14.67-0.619-22.013-0.606c-6.551,0.012-13.097,0.379-19.648,0.45
				c-4.467,0.049-10.686-0.94-14.709,1.602c-2.492,1.576-4.363,4.345-6.344,6.434c-4.874,5.141-10.208,9.828-15.471,14.562
				C534.644,341.909,535.354,342.614,535.832,342.185L535.832,342.185z"/>
		</g>
	</g>
	<g>
		<path style="fill:#F5CDB3;" d="M634.254,139.874c0,11.503-9.326,20.829-20.829,20.829H419.487
			c-11.503,0-20.829-9.326-20.829-20.829v-19.389c0-11.503,9.326-20.83,20.829-20.83h193.938c11.503,0,20.829,9.327,20.829,20.83
			V139.874z"/>
		<g>
			<g>
				<path style="fill:#C97440;" d="M431.063,114.233c0.729-1.479,1.925-1.479,2.654,0l2.332,4.725
					c0.729,1.479,2.663,2.885,4.296,3.122l5.215,0.758c1.633,0.237,2.002,1.374,0.82,2.525l-3.771,3.676
					c-1.182,1.151-1.92,3.424-1.642,5.051l0.892,5.192c0.278,1.626-0.689,2.329-2.148,1.562l-4.665-2.453
					c-1.46-0.768-3.851-0.768-5.311,0.001l-4.663,2.451c-1.46,0.768-2.427,0.065-2.147-1.561l0.891-5.192
					c0.279-1.627-0.459-3.899-1.641-5.051l-3.772-3.676c-1.182-1.151-0.813-2.288,0.82-2.525l5.213-0.76
					c1.633-0.237,3.567-1.643,4.296-3.122L431.063,114.233z"/>
			</g>
			<g>
				<path style="fill:#C97440;" d="M472.73,114.233c0.73-1.479,1.925-1.479,2.655,0l2.329,4.725c0.73,1.479,2.663,2.885,4.296,3.122
					l5.214,0.758c1.633,0.237,2.002,1.374,0.82,2.525l-3.771,3.676c-1.182,1.151-1.92,3.424-1.641,5.051l0.891,5.192
					c0.279,1.626-0.688,2.329-2.147,1.561l-4.663-2.451c-1.46-0.769-3.851-0.769-5.311-0.001l-4.666,2.453
					c-1.46,0.768-2.427,0.064-2.147-1.562l0.891-5.192c0.279-1.627-0.459-3.899-1.641-5.051l-3.771-3.676
					c-1.182-1.151-0.813-2.288,0.82-2.525l5.214-0.76c1.633-0.237,3.566-1.643,4.297-3.122L472.73,114.233z"/>
			</g>
			<g>
				<path style="fill:#C97440;" d="M514.396,114.233c0.731-1.479,1.926-1.479,2.655,0l2.331,4.725
					c0.729,1.479,2.663,2.885,4.296,3.122l5.214,0.758c1.633,0.237,2.002,1.374,0.82,2.525l-3.771,3.676
					c-1.182,1.151-1.92,3.424-1.642,5.051l0.892,5.192c0.278,1.626-0.688,2.329-2.148,1.561l-4.664-2.451
					c-1.46-0.769-3.851-0.769-5.311,0l-4.662,2.451c-1.46,0.768-2.427,0.065-2.148-1.561l0.89-5.192
					c0.279-1.627-0.46-3.899-1.642-5.051l-3.77-3.676c-1.182-1.151-0.813-2.288,0.82-2.526l5.21-0.758
					c1.633-0.238,3.566-1.644,4.297-3.123L514.396,114.233z"/>
			</g>
			<g>
				<path style="fill:#C97440;" d="M556.065,114.233c0.73-1.479,1.926-1.479,2.655,0l2.33,4.725
					c0.729,1.479,2.663,2.885,4.296,3.122l5.214,0.758c1.633,0.237,2.002,1.374,0.82,2.525l-3.771,3.676
					c-1.182,1.151-1.92,3.424-1.641,5.051l0.891,5.192c0.279,1.626-0.688,2.329-2.148,1.561l-4.663-2.451
					c-1.46-0.769-3.851-0.769-5.311,0l-4.664,2.451c-1.46,0.768-2.427,0.065-2.148-1.561l0.891-5.192
					c0.278-1.626-0.46-3.899-1.642-5.051l-3.771-3.676c-1.182-1.151-0.813-2.288,0.82-2.525l5.213-0.76
					c1.633-0.237,3.566-1.643,4.297-3.122L556.065,114.233z"/>
			</g>
			<g>
				<path style="fill:#C97440;" d="M597.729,114.233c0.731-1.479,1.926-1.479,2.656,0l2.332,4.725
					c0.73,1.479,2.664,2.885,4.297,3.122l5.214,0.758c1.633,0.237,2.002,1.374,0.82,2.525l-3.773,3.676
					c-1.182,1.151-1.92,3.424-1.641,5.051l0.891,5.192c0.279,1.626-0.688,2.329-2.148,1.562l-4.665-2.453
					c-1.46-0.768-3.85-0.768-5.311,0.001l-4.661,2.451c-1.46,0.768-2.427,0.065-2.148-1.561l0.892-5.192
					c0.278-1.627-0.46-3.899-1.642-5.051l-3.771-3.676c-1.182-1.151-0.813-2.288,0.82-2.526l5.211-0.758
					c1.633-0.238,3.566-1.644,4.297-3.123L597.729,114.233z"/>
			</g>
		</g>
		<g>
			<path style="fill:#1F0E03;" d="M502.886,157.643c3.29-0.038,6.575-0.327,9.865-0.365c0.645-0.007,0.646-1.007,0-1
				c-3.29,0.038-6.575,0.327-9.865,0.365C502.241,156.65,502.24,157.65,502.886,157.643L502.886,157.643z"/>
		</g>
		<g>
			<path style="fill:#1F0E03;" d="M517.332,157.278c11.758-0.265,23.516,0.26,35.273,0.068c5.866-0.096,11.686-0.644,17.539-0.932
				c6.152-0.302,12.319-0.198,18.474-0.039c5.879,0.151,11.755,0.38,17.636,0.467c4.056,0.06,8.179,0.255,12.17-0.607
				c6.531-1.412,9.31-6.7,9.743-12.983c0.045-0.644-0.956-0.64-1,0c-0.241,3.487-1.049,6.915-3.645,9.411
				c-2.362,2.272-5.918,2.884-9.05,3.13c-4.662,0.367-9.439,0.048-14.107-0.072c-5.542-0.143-11.083-0.355-16.627-0.452
				c-11.067-0.193-22.038,0.964-33.093,1.106c-11.106,0.143-22.208-0.347-33.314-0.097
				C516.688,156.293,516.686,157.293,517.332,157.278L517.332,157.278z"/>
		</g>
	</g>
	<g>
		<path style="fill:#F5CDB3;" d="M168.421,289.568c0,11.502-9.326,20.828-20.829,20.828H65.301
			c-11.503,0-20.829-9.326-20.829-20.828v-24.232c0-11.503,9.325-20.828,20.829-20.828h82.292c11.503,0,20.829,9.325,20.829,20.828
			V289.568z"/>
		<text transform="matrix(1 0 0 1 67.8623 286.8779)" style="fill:#C97440; font-family:'Raleway-Bold'; font-size:32.1078px;">24/7</text>
		<g>
			<path style="fill:#1F0E03;" d="M115.897,306.811c14.259-3.491,30.155,3.524,43.148-5.257c0.531-0.358,0.031-1.226-0.505-0.863
				c-12.835,8.675-28.778,1.695-42.909,5.155C115.005,306,115.271,306.965,115.897,306.811L115.897,306.811z"/>
		</g>
		<g>
			<path style="fill:#1F0E03;" d="M163.774,269.879c0.221,2.15,0.113,4.3,0.405,6.447c0.339,2.485,0.706,4.886,0.681,7.4
				c-0.046,4.759-0.448,9.821-3.21,13.855c-0.366,0.533,0.502,1.033,0.863,0.504c2.428-3.545,3.04-7.81,3.277-12.013
				c0.123-2.172,0.172-4.389-0.126-6.548c-0.446-3.228-0.559-6.42-0.89-9.646C164.71,269.244,163.708,269.237,163.774,269.879
				L163.774,269.879z"/>
		</g>
	</g>
</g>
</svg>
